<svg t="1684760535447" class="icon" viewBox="0 0 1024 1024" version="1.1" xmlns="http://www.w3.org/2000/svg" p-id="980" width="200" height="200"><path d="M551.4496 778.592a41.6 41.6 0 0 1 80.3648 21.536l-51.3536 191.6352A41.6 41.6 0 0 1 500.096 970.24z m-185.9072 28.4736a41.6 41.6 0 0 1 80.3712 21.5296l-24.8512 92.736a41.6 41.6 0 1 1-80.3648-21.536z m356.0704-26.1056a41.6 41.6 0 0 1 80.3648 21.536l-31.4752 117.4592a41.6 41.6 0 1 1-80.3648-21.536z m-484.0576-115.2a41.6 41.6 0 1 1 80.3648 21.536l-34.7904 129.8176a41.6 41.6 0 0 1-80.3648-21.5296zM454.4 25.6c132.4608 0 244.0384 89.4272 277.6448 211.2h51.9552c107.808 0 195.2 87.392 195.2 195.2S891.808 627.2 784 627.2h-98.2976l-19.0272 71.0272a41.6 41.6 0 0 1-49.504 29.7792l-1.4464-0.3648a41.6 41.6 0 0 1-29.4144-50.944L599.5648 627.2H506.2976l-0.1472 0.5888-26.496 98.912a41.6 41.6 0 0 1-80.3712-21.536L420.1728 627.2h-160.448a146.176 146.176 0 0 1-13.8752-0.6592c-5.0944 0.4352-10.24 0.6592-15.4496 0.6592C131.4304 627.2 51.2 546.9696 51.2 448c0-77.1584 48.768-142.9312 117.1584-168.1728C185.088 136.6848 306.7648 25.6 454.4 25.6z m291.1232 653.4656a41.6 41.6 0 1 1 80.3648 21.5296 41.6 41.6 0 0 1-80.3648-21.5296zM454.4 108.8c-103.104 0-189.6832 76.6464-203.0208 177.6128l-0.384 3.072a83.2 83.2 0 0 1-51.8848 67.648l-1.9456 0.7488A96.064 96.064 0 0 0 134.4 448c0 53.0176 42.9824 96 96 96 1.8752 0 3.7376-0.0512 5.5872-0.16l2.752-0.192a83.2 83.2 0 0 1 12.0064-0.16l2.9952 0.2304c1.312 0.128 2.6368 0.2112 3.968 0.256l2.016 0.0256H784c61.856 0 112-50.144 112-112 0-61.152-49.0112-110.8608-109.888-111.9808L784 320h-51.9488a83.2 83.2 0 0 1-79.648-59.136l-0.5568-1.9264C627.5648 170.944 547.0976 108.8 454.4 108.8z" p-id="981"></path></svg>